<svg width="49" height="48" viewBox="0 0 49 48" fill="none" xmlns="http://www.w3.org/2000/svg">
<g clip-path="url(#clip0_100_1913)">
<path d="M43.7356 20.2447L35.8353 26.3445C35.8031 26.3694 35.7706 26.3966 35.736 26.4212L29.0519 31.5821C29.1476 31.234 29.2269 30.8814 29.2891 30.5292C29.3848 29.982 29.4399 29.4274 29.4517 28.87C29.457 28.6859 29.4554 28.4986 29.4508 28.3158C29.4408 27.9572 29.4138 27.5989 29.3696 27.241L41.7206 17.7047C41.9837 17.5016 42.2245 17.2814 42.4404 17.0462C42.9889 16.4556 43.3929 15.773 43.649 15.0462C43.8343 14.5218 43.9422 13.9737 43.9704 13.4206C44.0003 12.8534 43.946 12.2784 43.8044 11.7215C43.7552 11.5261 43.696 11.3318 43.6267 11.1411C43.4186 10.5714 43.1153 10.0237 42.7143 9.51926C42.2732 8.96442 41.7518 8.51016 41.1788 8.15997C41.0565 8.08516 40.9336 8.01508 40.8078 7.94943C40.2585 7.66449 39.6717 7.46852 39.0688 7.36416C38.5493 7.27471 38.0191 7.25352 37.4953 7.30026C36.7179 7.37138 35.9488 7.59462 35.2356 7.97816C34.9519 8.13081 34.6773 8.30854 34.4146 8.5093L26.415 14.6858C25.8406 15.1293 25.3726 15.6578 25.0148 16.2404C24.5456 16.9989 24.2674 17.8478 24.1839 18.7155C24.1779 18.7652 24.1767 18.8154 24.1731 18.8653L21.1128 21.2281C21.0046 20.7569 20.9386 20.2787 20.9094 19.7979C20.8905 19.5126 20.8884 19.2293 20.8986 18.9451C20.9056 18.6869 20.9267 18.4328 20.958 18.1752C20.9769 18.0192 21.0006 17.8638 21.0268 17.7086C21.1549 16.9734 21.3758 16.2567 21.6854 15.5699C21.9991 14.8693 22.411 14.2021 22.9109 13.5912C23.3396 13.0652 23.8366 12.5787 24.3977 12.1455C24.4325 12.1186 24.4648 12.0937 24.4994 12.0691L32.3999 5.96693C32.6603 5.76588 32.9285 5.58018 33.2043 5.41219C33.859 5.00956 34.5489 4.69755 35.2572 4.47413C36.0614 4.22158 36.8909 4.08242 37.7215 4.05373C38.4641 4.02875 39.2081 4.09269 39.9343 4.2432C40.2476 4.30762 40.5565 4.38829 40.8634 4.48551C41.2969 4.62208 41.7215 4.79117 42.1323 4.99454C42.7386 5.2912 43.317 5.65644 43.8533 6.08852C44.3718 6.50645 44.8536 6.98707 45.2841 7.52864C45.6767 8.02242 46.0101 8.5426 46.2825 9.08416C46.6063 9.7231 46.8489 10.3906 47.0073 11.0694C47.1182 11.5386 47.1896 12.0125 47.2242 12.4893C47.2468 12.8038 47.2521 13.1211 47.2406 13.4363C47.2151 14.1671 47.1025 14.8946 46.8978 15.5989C46.6707 16.3868 46.3352 17.1472 45.8939 17.8564C45.5043 18.4807 45.0318 19.0661 44.4784 19.5962C44.2472 19.8175 44.0001 20.0298 43.7394 20.2332L43.7356 20.2447Z" fill="#DCA500"/>
<path d="M23.6944 35.7144L23.6967 35.7147L15.8741 41.7568C15.5869 41.9785 15.2923 42.1802 14.9881 42.3616C14.3293 42.7589 13.6331 43.0629 12.9184 43.2784C12.1054 43.5227 11.2696 43.6539 10.433 43.6722C9.73044 43.6877 9.02808 43.6216 8.33999 43.4781C7.96972 43.402 7.60231 43.3022 7.24257 43.1794C6.84054 43.0443 6.44703 42.879 6.06627 42.6888C5.43538 42.3748 4.83582 41.983 4.2838 41.5202C3.81782 41.1303 3.3827 40.6865 2.99014 40.1927C2.5596 39.6511 2.20135 39.0752 1.91367 38.479C1.61629 37.8624 1.39487 37.2215 1.24765 36.5705C1.16056 36.1857 1.10041 35.7994 1.06509 35.409C1.03016 35.0354 1.01979 34.6599 1.03338 34.2874C1.05666 33.5947 1.15963 32.9068 1.34296 32.2383C1.56126 31.4421 1.8884 30.6711 2.32574 29.9543C2.70903 29.322 3.17489 28.731 3.7243 28.1932C3.97575 27.9455 4.24495 27.712 4.53218 27.4902L12.3545 21.4505L12.3569 21.4508C12.4136 21.4049 12.4727 21.3593 12.5317 21.3137L19.0387 16.2896C18.9429 16.6378 18.8636 16.9903 18.8014 17.3425C18.7159 17.8262 18.664 18.314 18.6459 18.8035C18.6386 19.0041 18.6361 19.2053 18.6384 19.4071C18.6423 19.8153 18.6706 20.2241 18.7212 20.6284L6.54744 30.0278C6.25752 30.2517 5.99437 30.4956 5.76037 30.7598C5.22 31.3634 4.82417 32.0589 4.58131 32.7969C4.43071 33.2559 4.33678 33.729 4.3028 34.2094C4.2564 34.8922 4.32806 35.5844 4.52687 36.2514C4.54424 36.3087 4.56191 36.3636 4.57957 36.4185C4.78747 37.0505 5.11026 37.6582 5.55135 38.213C5.95235 38.7174 6.4194 39.1387 6.93091 39.4742C7.03219 39.5417 7.13645 39.6047 7.24099 39.6654C7.82107 39.9972 8.44762 40.2268 9.09428 40.3509C9.60783 40.4492 10.1321 40.4793 10.6548 40.442C11.4401 40.3862 12.22 40.1739 12.944 39.8012C13.2579 39.6403 13.5636 39.4471 13.8535 39.2233L21.853 33.0468C22.3979 32.626 22.8502 32.1269 23.1989 31.5792C23.6757 30.8383 23.9662 30.0077 24.0698 29.1544C24.0805 29.067 24.089 28.9769 24.0948 28.8888C24.0999 28.8463 24.1 28.8055 24.1028 28.7627L27.1362 26.4206C27.2556 26.9196 27.3281 27.4249 27.3589 27.9323C27.3778 28.2176 27.3799 28.5009 27.3697 28.7851C27.36 29.0861 27.3355 29.3878 27.2943 29.6874C27.2712 29.8573 27.2434 30.0266 27.2107 30.1953C27.071 30.9051 26.8483 31.5976 26.5394 32.2581C26.2167 32.9529 25.8012 33.61 25.2949 34.213C24.8819 34.7097 24.4051 35.1699 23.8709 35.5823C23.8119 35.6279 23.7528 35.6735 23.6917 35.7165L23.6944 35.7144Z" fill="#DCA500"/>
<path d="M35.6221 17.3193L14.9331 33.2956C14.9275 33.3021 14.9197 33.3059 14.914 33.3125C14.557 33.5881 14.1322 33.7212 13.7117 33.7182C13.1378 33.7157 12.5701 33.462 12.1881 32.9815C11.8061 32.501 11.6921 31.8972 11.827 31.3475C11.9248 30.942 12.1574 30.5697 12.5144 30.294C12.5385 30.2754 12.56 30.2588 12.5839 30.2425C12.5839 30.2425 12.5839 30.2425 12.5842 30.2401L33.1766 14.3385C33.1766 14.3385 33.1766 14.3385 33.1789 14.3388C33.2007 14.3198 33.2249 14.3012 33.2466 14.2822C33.5688 14.0335 33.9448 13.9017 34.3245 13.8806C34.9394 13.8449 35.5607 14.0978 35.9701 14.6128C36.3796 15.1279 36.4798 15.7852 36.2978 16.3628C36.1862 16.721 35.966 17.0516 35.6442 17.298C35.6361 17.3042 35.6308 17.3084 35.6227 17.3146L35.6221 17.3193Z" fill="#DCA500"/>
</g>
<defs>
<clipPath id="clip0_100_1913">
<rect width="43.4228" height="42.8112" fill="white" transform="translate(5.15927) rotate(6.92165)"/>
</clipPath>
</defs>
</svg>
