<svg width="63" height="63" viewBox="0 0 63 63" fill="none" xmlns="http://www.w3.org/2000/svg">
<g clip-path="url(#clip0_332_2)">
<path d="M25.9708 17.8163L17.6518 26.1266L14.2489 22.7273L19.7385 17.2434C21.3013 15.6822 23.8345 15.6822 25.3973 17.2434L25.9708 17.8163Z" fill="#EA20CF"/>
<path d="M56.9105 29.5945C58.4733 31.1557 58.4733 33.6863 56.9105 35.2475L56.337 35.8203L54.9537 37.2037L51.5508 40.6016L41.9769 31.0376L40.5921 32.421L50.166 41.9849L46.7631 45.3843L45.2499 46.8974L44.6764 47.4703C43.1136 49.03 40.5804 49.03 39.0191 47.4703L32.2746 40.7328L30.7599 42.2459L27.3571 45.6438L25.8424 47.1569L25.2689 47.7297C23.7061 49.2909 21.1729 49.2909 19.6101 47.7297L7.24474 35.3772C5.68193 33.816 5.68193 31.2855 7.24474 29.7243L7.81821 29.1514L9.33288 27.6383L12.7358 24.2404L17.6518 29.1514L21.0547 32.5507L22.5694 34.0638L24.0826 32.5507L22.5679 31.0376L19.1665 27.6398L27.4855 19.3294L30.8869 22.7273L32.403 24.2404L33.7878 22.857L37.1892 19.4577L38.574 18.0758L39.1475 17.5029C40.7103 15.9417 43.2435 15.9417 44.8063 17.5029L45.3783 18.0743L46.7631 19.4577L50.166 22.857L51.5508 24.2404L56.9105 29.5945Z" fill="#EA20CF"/>
</g>
<defs>
<clipPath id="clip0_332_2">
<rect width="52.1552" height="32.9717" fill="white" transform="translate(6 16)"/>
</clipPath>
</defs>
</svg>
